<svg viewBox="0 0 800 500" xmlns="http://www.w3.org/2000/svg">
  <!-- Background -->
  <rect width="800" height="500" fill="#f8f9fa" rx="10" ry="10"/>
  
  <!-- Title -->
  <text x="400" y="40" font-family="Arial, sans-serif" font-size="24" font-weight="bold" text-anchor="middle" fill="#333">Pod Startup Latencies</text>
  <text x="400" y="70" font-family="Arial, sans-serif" font-size="16" text-anchor="middle" fill="#666">99th Percentile Time to Running State</text>
  
  <!-- Chart Area -->
  <rect x="100" y="100" width="600" height="300" fill="#fff" stroke="#ccc" stroke-width="1"/>
  
  <!-- X-Axis -->
  <line x1="100" y1="400" x2="700" y2="400" stroke="#333" stroke-width="2"/>
  <text x="400" y="440" font-family="Arial, sans-serif" font-size="18" text-anchor="middle" fill="#333">Cluster Size (Number of Nodes)</text>
  
  <!-- X-Axis Ticks and Labels -->
  <line x1="150" y1="400" x2="150" y2="405" stroke="#333" stroke-width="1"/>
  <text x="150" y="425" font-family="Arial, sans-serif" font-size="14" text-anchor="middle" fill="#333">100</text>
  
  <line x1="250" y1="400" x2="250" y2="405" stroke="#333" stroke-width="1"/>
  <text x="250" y="425" font-family="Arial, sans-serif" font-size="14" text-anchor="middle" fill="#333">500</text>
  
  <line x1="350" y1="400" x2="350" y2="405" stroke="#333" stroke-width="1"/>
  <text x="350" y="425" font-family="Arial, sans-serif" font-size="14" text-anchor="middle" fill="#333">1000</text>
  
  <line x1="450" y1="400" x2="450" y2="405" stroke="#333" stroke-width="1"/>
  <text x="450" y="425" font-family="Arial, sans-serif" font-size="14" text-anchor="middle" fill="#333">2000</text>
  
  <line x1="550" y1="400" x2="550" y2="405" stroke="#333" stroke-width="1"/>
  <text x="550" y="425" font-family="Arial, sans-serif" font-size="14" text-anchor="middle" fill="#333">5000</text>
  
  <line x1="650" y1="400" x2="650" y2="405" stroke="#333" stroke-width="1"/>
  <text x="650" y="425" font-family="Arial, sans-serif" font-size="14" text-anchor="middle" fill="#333">10000</text>
  
  <!-- Y-Axis -->
  <line x1="100" y1="100" x2="100" y2="400" stroke="#333" stroke-width="2"/>
  <text x="40" y="250" font-family="Arial, sans-serif" font-size="18" text-anchor="middle" fill="#333" transform="rotate(-90, 40, 250)">Time (seconds)</text>
  
  <!-- Y-Axis Ticks and Labels -->
  <line x1="95" y1="375" x2="100" y2="375" stroke="#333" stroke-width="1"/>
  <text x="85" y="380" font-family="Arial, sans-serif" font-size="14" text-anchor="end" fill="#333">1</text>
  
  <line x1="95" y1="350" x2="100" y2="350" stroke="#333" stroke-width="1"/>
  <text x="85" y="355" font-family="Arial, sans-serif" font-size="14" text-anchor="end" fill="#333">2</text>
  
  <line x1="95" y1="325" x2="100" y2="325" stroke="#333" stroke-width="1"/>
  <text x="85" y="330" font-family="Arial, sans-serif" font-size="14" text-anchor="end" fill="#333">3</text>
  
  <line x1="95" y1="300" x2="100" y2="300" stroke="#333" stroke-width="1"/>
  <text x="85" y="305" font-family="Arial, sans-serif" font-size="14" text-anchor="end" fill="#333">4</text>
  
  <line x1="95" y1="275" x2="100" y2="275" stroke="#333" stroke-width="1"/>
  <text x="85" y="280" font-family="Arial, sans-serif" font-size="14" text-anchor="end" fill="#333">5</text>
  
  <line x1="95" y1="250" x2="100" y2="250" stroke="#333" stroke-width="1"/>
  <text x="85" y="255" font-family="Arial, sans-serif" font-size="14" text-anchor="end" fill="#333">6</text>
  
  <line x1="95" y1="225" x2="100" y2="225" stroke="#333" stroke-width="1"/>
  <text x="85" y="230" font-family="Arial, sans-serif" font-size="14" text-anchor="end" fill="#333">7</text>
  
  <line x1="95" y1="200" x2="100" y2="200" stroke="#333" stroke-width="1"/>
  <text x="85" y="205" font-family="Arial, sans-serif" font-size="14" text-anchor="end" fill="#333">8</text>
  
  <line x1="95" y1="175" x2="100" y2="175" stroke="#333" stroke-width="1"/>
  <text x="85" y="180" font-family="Arial, sans-serif" font-size="14" text-anchor="end" fill="#333">9</text>
  
  <line x1="95" y1="150" x2="100" y2="150" stroke="#333" stroke-width="1"/>
  <text x="85" y="155" font-family="Arial, sans-serif" font-size="14" text-anchor="end" fill="#333">10</text>
  
  <line x1="95" y1="125" x2="100" y2="125" stroke="#333" stroke-width="1"/>
  <text x="85" y="130" font-family="Arial, sans-serif" font-size="14" text-anchor="end" fill="#333">11</text>
  
  <line x1="95" y1="100" x2="100" y2="100" stroke="#333" stroke-width="1"/>
  <text x="85" y="105" font-family="Arial, sans-serif" font-size="14" text-anchor="end" fill="#333">12</text>
  
  <!-- Grid Lines -->
  <line x1="100" y1="375" x2="700" y2="375" stroke="#ddd" stroke-width="1" stroke-dasharray="5,5"/>
  <line x1="100" y1="350" x2="700" y2="350" stroke="#ddd" stroke-width="1" stroke-dasharray="5,5"/>
  <line x1="100" y1="325" x2="700" y2="325" stroke="#ddd" stroke-width="1" stroke-dasharray="5,5"/>
  <line x1="100" y1="300" x2="700" y2="300" stroke="#ddd" stroke-width="1" stroke-dasharray="5,5"/>
  <line x1="100" y1="275" x2="700" y2="275" stroke="#ddd" stroke-width="1" stroke-dasharray="5,5"/>
  <line x1="100" y1="250" x2="700" y2="250" stroke="#ddd" stroke-width="1" stroke-dasharray="5,5"/>
  <line x1="100" y1="225" x2="700" y2="225" stroke="#ddd" stroke-width="1" stroke-dasharray="5,5"/>
  <line x1="100" y1="200" x2="700" y2="200" stroke="#ddd" stroke-width="1" stroke-dasharray="5,5"/>
  <line x1="100" y1="175" x2="700" y2="175" stroke="#ddd" stroke-width="1" stroke-dasharray="5,5"/>
  <line x1="100" y1="150" x2="700" y2="150" stroke="#ddd" stroke-width="1" stroke-dasharray="5,5"/>
  <line x1="100" y1="125" x2="700" y2="125" stroke="#ddd" stroke-width="1" stroke-dasharray="5,5"/>
  
  <line x1="150" y1="100" x2="150" y2="400" stroke="#ddd" stroke-width="1" stroke-dasharray="5,5"/>
  <line x1="250" y1="100" x2="250" y2="400" stroke="#ddd" stroke-width="1" stroke-dasharray="5,5"/>
  <line x1="350" y1="100" x2="350" y2="400" stroke="#ddd" stroke-width="1" stroke-dasharray="5,5"/>
  <line x1="450" y1="100" x2="450" y2="400" stroke="#ddd" stroke-width="1" stroke-dasharray="5,5"/>
  <line x1="550" y1="100" x2="550" y2="400" stroke="#ddd" stroke-width="1" stroke-dasharray="5,5"/>
  <line x1="650" y1="100" x2="650" y2="400" stroke="#ddd" stroke-width="1" stroke-dasharray="5,5"/>
  
  <!-- Data Lines -->
  <!-- Line for Standard Pod -->
  <polyline points="150,370 250,360 350,342 450,315 550,260 650,190" fill="none" stroke="#3366cc" stroke-width="3"/>
  
  <!-- Line for Pod with PVC -->
  <polyline points="150,350 250,330 350,300 450,255 550,200 650,120" fill="none" stroke="#dc3912" stroke-width="3"/>
  
  <!-- Line for Pod with Initialization -->
  <polyline points="150,340 250,315 350,280 450,230 550,165 650,85" fill="none" stroke="#ff9900" stroke-width="3"/>
  
  <!-- Threshold Line for 5 seconds -->
  <line x1="100" y1="275" x2="700" y2="275" stroke="#ff0000" stroke-width="2" stroke-dasharray="10,5"/>
  <text x="140" y="265" font-family="Arial, sans-serif" font-size="14" fill="#ff0000">Target Threshold (5 seconds)</text>
  
  <!-- Data Points -->
  <!-- Standard Pod Points -->
  <circle cx="150" cy="370" r="5" fill="#3366cc"/>
  <circle cx="250" cy="360" r="5" fill="#3366cc"/>
  <circle cx="350" cy="342" r="5" fill="#3366cc"/>
  <circle cx="450" cy="315" r="5" fill="#3366cc"/>
  <circle cx="550" cy="260" r="5" fill="#3366cc"/>
  <circle cx="650" cy="190" r="5" fill="#3366cc"/>
  
  <!-- Pod with PVC Points -->
  <circle cx="150" cy="350" r="5" fill="#dc3912"/>
  <circle cx="250" cy="330" r="5" fill="#dc3912"/>
  <circle cx="350" cy="300" r="5" fill="#dc3912"/>
  <circle cx="450" cy="255" r="5" fill="#dc3912"/>
  <circle cx="550" cy="200" r="5" fill="#dc3912"/>
  <circle cx="650" cy="120" r="5" fill="#dc3912"/>
  
  <!-- Pod with Initialization Points -->
  <circle cx="150" cy="340" r="5" fill="#ff9900"/>
  <circle cx="250" cy="315" r="5" fill="#ff9900"/>
  <circle cx="350" cy="280" r="5" fill="#ff9900"/>
  <circle cx="450" cy="230" r="5" fill="#ff9900"/>
  <circle cx="550" cy="165" r="5" fill="#ff9900"/>
  <circle cx="650" cy="85" r="5" fill="#ff9900"/>
  
  <!-- Legend -->
  <rect x="480" y="110" width="200" height="100" rx="5" ry="5" fill="white" stroke="#ccc" stroke-width="1"/>
  
  <circle cx="500" cy="135" r="5" fill="#3366cc"/>
  <line x1="510" y1="135" x2="530" y2="135" stroke="#3366cc" stroke-width="3"/>
  <text x="540" y="140" font-family="Arial, sans-serif" font-size="14" fill="#333">Standard Pod</text>
  
  <circle cx="500" cy="165" r="5" fill="#dc3912"/>
  <line x1="510" y1="165" x2="530" y2="165" stroke="#dc3912" stroke-width="3"/>
  <text x="540" y="170" font-family="Arial, sans-serif" font-size="14" fill="#333">Pod with PVC</text>
  
  <circle cx="500" cy="195" r="5" fill="#ff9900"/>
  <line x1="510" y1="195" x2="530" y2="195" stroke="#ff9900" stroke-width="3"/>
  <text x="540" y="200" font-family="Arial, sans-serif" font-size="14" fill="#333">Pod with Init Containers</text>
</svg>