<?xml version="1.0" encoding="UTF-8"?>
<svg width="800" height="550" xmlns="http://www.w3.org/2000/svg">
  <defs>
    <style type="text/css">
      text { font-family: Arial, sans-serif; }
      .title { font-size: 20px; font-weight: bold; }
      .subtitle { font-size: 16px; }
      .box { fill: #f0f0f0; stroke: #333; stroke-width: 2; }
      .problem-box { fill: #f9d6d5; stroke: #d9534f; stroke-width: 2; }
      .solution-box { fill: #d9f2d9; stroke: #5cb85c; stroke-width: 2; }
      .command-box { fill: #f0f0f0; stroke: #333; stroke-width: 1; }
      .arrow { fill: none; stroke: #666; stroke-width: 2; marker-end: url(#arrowhead); }
      .code { font-family: monospace; font-size: 12px; }
    </style>
    <marker id="arrowhead" markerWidth="10" markerHeight="7" refX="9" refY="3.5" orient="auto">
      <polygon points="0 0, 10 3.5, 0 7" fill="#666" />
    </marker>
  </defs>
  
  <text x="400" y="30" text-anchor="middle" class="title">Kubernetes Deployment Troubleshooting</text>
  
  <!-- Common Issues and Solutions -->
  <text x="400" y="60" text-anchor="middle" class="subtitle">Common Issues and Debugging Techniques</text>
  
  <!-- Issue 1: ImagePullBackOff -->
  <rect x="50" y="80" width="340" height="130" rx="10" ry="10" class="problem-box"/>
  <text x="70" y="100" font-size="16">Problem: ImagePullBackOff</text>
  <text x="70" y="125" font-size="12">- Container image can't be pulled</text>
  <text x="70" y="145" font-size="12">- Incorrect image name or tag</text>
  <text x="70" y="165" font-size="12">- Private registry authentication issue</text>
  <text x="70" y="185" font-size="12">- Network connectivity problems</text>
  
  <rect x="410" y="80" width="340" height="130" rx="10" ry="10" class="solution-box"/>
  <text x="430" y="100" font-size="16">Solution:</text>
  <rect x="430" y="110" width="300" height="20" rx="5" ry="5" class="command-box"/>
  <text x="440" y="125" class="code">kubectl describe pod &lt;pod-name&gt;</text>
  <rect x="430" y="140" width="300" height="20" rx="5" ry="5" class="command-box"/>
  <text x="440" y="155" class="code">kubectl get events</text>
  <text x="430" y="180" font-size="12">- Verify image name, tag, and registry</text>
  <text x="430" y="200" font-size="12">- Check imagePullSecrets if using private registry</text>
  
  <!-- Arrow -->
  <line x1="390" y1="145" x2="410" y2="145" class="arrow"/>
  
  <!-- Issue 2: CrashLoopBackOff -->
  <rect x="50" y="230" width="340" height="130" rx="10" ry="10" class="problem-box"/>
  <text x="70" y="250" font-size="16">Problem: CrashLoopBackOff</text>
  <text x="70" y="275" font-size="12">- Container starts but then crashes</text>
  <text x="70" y="295" font-size="12">- Application errors</text>
  <text x="70" y="315" font-size="12">- Missing dependencies or configuration</text>
  <text x="70" y="335" font-size="12">- Resource constraints</text>
  
  <rect x="410" y="230" width="340" height="130" rx="10" ry="10" class="solution-box"/>
  <text x="430" y="250" font-size="16">Solution:</text>
  <rect x="430" y="260" width="300" height="20" rx="5" ry="5" class="command-box"/>
  <text x="440" y="275" class="code">kubectl logs &lt;pod-name&gt;</text>
  <rect x="430" y="290" width="300" height="20" rx="5" ry="5" class="command-box"/>
  <text x="440" y="305" class="code">kubectl logs &lt;pod-name&gt; --previous</text>
  <text x="430" y="330" font-size="12">- Check application logs for errors</text>
  <text x="430" y="350" font-size="12">- Verify resource limits and requests</text>
  
  <!-- Arrow -->
  <line x1="390" y1="295" x2="410" y2="295" class="arrow"/>
  
  <!-- Issue 3: Deployment Stuck -->
  <rect x="50" y="380" width="340" height="150" rx="10" ry="10" class="problem-box"/>
  <text x="70" y="400" font-size="16">Problem: Stuck Deployment Rollout</text>
  <text x="70" y="425" font-size="12">- Pods not becoming ready</text>
  <text x="70" y="445" font-size="12">- Readiness probe failures</text>
  <text x="70" y="465" font-size="12">- Resource quotas exceeded</text>
  <text x="70" y="485" font-size="12">- PVC binding issues</text>
  <text x="70" y="505" font-size="12">- Node affinity/anti-affinity problems</text>
  
  <rect x="410" y="380" width="340" height="150" rx="10" ry="10" class="solution-box"/>
  <text x="430" y="400" font-size="16">Solution:</text>
  <rect x="430" y="410" width="300" height="20" rx="5" ry="5" class="command-box"/>
  <text x="440" y="425" class="code">kubectl rollout status deployment/&lt;name&gt;</text>
  <rect x="430" y="440" width="300" height="20" rx="5" ry="5" class="command-box"/>
  <text x="440" y="455" class="code">kubectl describe deployment &lt;name&gt;</text>
  <rect x="430" y="470" width="300" height="20" rx="5" ry="5" class="command-box"/>
  <text x="440" y="485" class="code">kubectl get rs</text>
  <text x="430" y="510" font-size="12">- If needed, roll back: kubectl rollout undo ...</text>
  <text x="430" y="530" font-size="12">- Check quotas: kubectl describe quota</text>
  
  <!-- Arrow -->
  <line x1="390" y1="455" x2="410" y2="455" class="arrow"/>
</svg>