<svg viewBox="0 0 800 600" xmlns="http://www.w3.org/2000/svg">
  <!-- Background -->
  <rect width="800" height="600" fill="#f8f9fa" rx="10" ry="10"/>
  
  <!-- Title -->
  <text x="400" y="50" font-family="Arial, sans-serif" font-size="24" font-weight="bold" text-anchor="middle" fill="#326ce5">Pod Anatomy</text>
  
  <!-- Pod outline -->
  <rect x="100" y="100" width="600" height="450" rx="20" ry="20" fill="#ffffff" stroke="#326ce5" stroke-width="3"/>
  
  <!-- Pod Header -->
  <rect x="100" y="100" width="600" height="60" rx="20" ry="20" fill="#e8f0fe" stroke="#326ce5" stroke-width="0"/>
  <text x="150" y="135" font-family="Arial, sans-serif" font-size="20" font-weight="bold" fill="#326ce5">Pod: my-application</text>
  <text x="400" y="135" font-family="Arial, sans-serif" font-size="14" fill="#546e7a">namespace: default</text>
  
  <!-- Metadata Section -->
  <rect x="120" y="170" width="560" height="80" rx="10" ry="10" fill="#f5f5f5" stroke="#9e9e9e" stroke-width="1"/>
  <text x="140" y="195" font-family="Arial, sans-serif" font-size="16" font-weight="bold" fill="#424242">Metadata</text>
  
  <!-- Labels -->
  <rect x="140" y="205" width="160" height="30" rx="15" ry="15" fill="#f1f8e9" stroke="#7cb342" stroke-width="1"/>
  <text x="220" y="225" font-family="Arial, sans-serif" font-size="12" text-anchor="middle" fill="#33691e">app=frontend</text>
  
  <!-- Annotations -->
  <rect x="310" y="205" width="350" height="30" rx="15" ry="15" fill="#fff3e0" stroke="#ff9800" stroke-width="1"/>
  <text x="485" y="225" font-family="Arial, sans-serif" font-size="12" text-anchor="middle" fill="#e65100">deployment.kubernetes.io/revision: "1"</text>
  
  <!-- Container Section -->
  <g>
    <!-- Main App Container -->
    <rect x="120" y="260" width="270" height="130" rx="10" ry="10" fill="#e3f2fd" stroke="#1976d2" stroke-width="2"/>
    <text x="140" y="285" font-family="Arial, sans-serif" font-size="16" font-weight="bold" fill="#1976d2">App Container</text>
    
    <!-- Container details -->
    <text x="140" y="310" font-family="Arial, sans-serif" font-size="12" fill="#424242">Name: app</text>
    <text x="140" y="330" font-family="Arial, sans-serif" font-size="12" fill="#424242">Image: nginx:1.21</text>
    <text x="140" y="350" font-family="Arial, sans-serif" font-size="12" fill="#424242">Port: 80</text>
    <text x="140" y="370" font-family="Arial, sans-serif" font-size="12" fill="#424242">Command: nginx -g 'daemon off;'</text>
    
    <!-- Init Container -->
    <rect x="120" y="400" width="270" height="80" rx="10" ry="10" fill="#e8eaf6" stroke="#3f51b5" stroke-width="2" stroke-dasharray="5,3"/>
    <text x="140" y="425" font-family="Arial, sans-serif" font-size="16" font-weight="bold" fill="#3f51b5">Init Container</text>
    <text x="140" y="450" font-family="Arial, sans-serif" font-size="12" fill="#424242">Name: init-myservice</text>
    <text x="140" y="470" font-family="Arial, sans-serif" font-size="12" fill="#424242">Image: busybox:1.28</text>
    
    <!-- Sidecar Container -->
    <rect x="120" y="490" width="270" height="50" rx="10" ry="10" fill="#e0f7fa" stroke="#0097a7" stroke-width="2"/>
    <text x="140" y="520" font-family="Arial, sans-serif" font-size="16" font-weight="bold" fill="#0097a7">Sidecar: logger</text>
  </g>
  
  <!-- Volume Section -->
  <g>
    <rect x="410" y="260" width="270" height="130" rx="10" ry="10" fill="#f3e5f5" stroke="#7b1fa2" stroke-width="2"/>
    <text x="430" y="285" font-family="Arial, sans-serif" font-size="16" font-weight="bold" fill="#7b1fa2">Volumes</text>
    
    <!-- Volume types -->
    <rect x="430" y="295" width="230" height="25" rx="5" ry="5" fill="#f8bbd0" stroke="#c2185b" stroke-width="1"/>
    <text x="545" y="312" font-family="Arial, sans-serif" font-size="12" text-anchor="middle" fill="#880e4f">emptyDir: logs-volume</text>
    
    <rect x="430" y="330" width="230" height="25" rx="5" ry="5" fill="#e1bee7" stroke="#8e24aa" stroke-width="1"/>
    <text x="545" y="347" font-family="Arial, sans-serif" font-size="12" text-anchor="middle" fill="#4a148c">configMap: app-config</text>
    
    <rect x="430" y="365" width="230" height="25" rx="5" ry="5" fill="#d1c4e9" stroke="#5e35b1" stroke-width="1"/>
    <text x="545" y="382" font-family="Arial, sans-serif" font-size="12" text-anchor="middle" fill="#311b92">secret: app-secrets</text>
  </g>
  
  <!-- Specs Section -->
  <g>
    <rect x="410" y="400" width="270" height="140" rx="10" ry="10" fill="#e8f5e9" stroke="#388e3c" stroke-width="2"/>
    <text x="430" y="425" font-family="Arial, sans-serif" font-size="16" font-weight="bold" fill="#388e3c">Pod Spec</text>
    
    <!-- Spec details -->
    <text x="430" y="450" font-family="Arial, sans-serif" font-size="12" fill="#424242">restartPolicy: Always</text>
    <text x="430" y="470" font-family="Arial, sans-serif" font-size="12" fill="#424242">serviceAccountName: default</text>
    <text x="430" y="490" font-family="Arial, sans-serif" font-size="12" fill="#424242">terminationGracePeriodSeconds: 30</text>
    <text x="430" y="510" font-family="Arial, sans-serif" font-size="12" fill="#424242">dnsPolicy: ClusterFirst</text>
    <text x="430" y="530" font-family="Arial, sans-serif" font-size="12" fill="#424242">nodeSelector: disk=ssd</text>
  </g>
  
  <!-- Connection lines -->
  <line x1="260" y1="490" x2="350" y2="325" stroke="#326ce5" stroke-width="2" stroke-dasharray="5,3"/>
  <line x1="545" y1="295" x2="300" y2="350" stroke="#7b1fa2" stroke-width="2" stroke-dasharray="5,3"/>
  
  <!-- Kubernetes logo -->
  <g transform="translate(700, 70) scale(0.25)">
    <path d="M 82.4,50.5 C 82.4,67.4 68.8,81.2 51.9,81.2 C 35,81.2 21.4,67.4 21.4,50.5 C 21.4,33.6 35,19.8 51.9,19.8 C 68.8,19.8 82.4,33.6 82.4,50.5 Z" fill="#326ce5"/>
    <path d="M 51.9,16 C 33.1,16 17.7,31.4 17.7,50.5 C 17.7,69.6 33.1,85 51.9,85 C 70.7,85 86.1,69.6 86.1,50.5 C 86.1,31.4 70.7,16 51.9,16 Z M 51.9,21.6 C 67.5,21.6 80.5,34.6 80.5,50.5 C 80.5,66.4 67.5,79.4 51.9,79.4 C 36.3,79.4 23.3,66.4 23.3,50.5 C 23.3,34.6 36.3,21.6 51.9,21.6 Z" fill="#ffffff"/>
    <path d="M 65.5,39 L 38.3,39 L 51.9,64.2 Z" fill="#ffffff" stroke="#ffffff" stroke-width="5" stroke-linejoin="round"/>
    <path d="M 65.5,39 L 51.9,22.8 L 38.3,39 Z" fill="#ffffff" stroke="#ffffff" stroke-width="5" stroke-linejoin="round"/>
  </g>
</svg>