<svg viewBox="0 0 800 600" xmlns="http://www.w3.org/2000/svg">
  <!-- Background -->
  <rect width="800" height="600" fill="#f8f9fa" rx="10" ry="10"/>
  
  <!-- Title -->
  <text x="400" y="50" font-family="Arial, sans-serif" font-size="24" font-weight="bold" text-anchor="middle" fill="#326ce5">Pod Networking</text>
  
  <!-- Kubernetes Cluster Box -->
  <rect x="100" y="100" width="600" height="420" rx="15" ry="15" fill="#f5f5f5" stroke="#546e7a" stroke-width="2" stroke-dasharray="5,5"/>
  <text x="175" y="130" font-family="Arial, sans-serif" font-size="18" font-weight="bold" fill="#546e7a">Kubernetes Cluster</text>
  
  <!-- Node 1 -->
  <rect x="130" y="150" width="250" height="330" rx="10" ry="10" fill="#ffffff" stroke="#78909c" stroke-width="2"/>
  <text x="175" y="175" font-family="Arial, sans-serif" font-size="16" font-weight="bold" fill="#37474f">Node 1</text>
  <text x="255" y="175" font-family="Arial, sans-serif" font-size="12" fill="#546e7a">10.0.1.1</text>
  
  <!-- Pod 1 -->
  <rect x="150" y="190" width="210" height="140" rx="10" ry="10" fill="#e3f2fd" stroke="#1976d2" stroke-width="2"/>
  <text x="175" y="215" font-family="Arial, sans-serif" font-size="16" font-weight="bold" fill="#0d47a1">Pod A</text>
  <text x="260" y="215" font-family="Arial, sans-serif" font-size="12" fill="#1976d2">10.244.1.2</text>
  
  <!-- Container 1 in Pod 1 -->
  <rect x="160" y="225" width="90" height="90" rx="5" ry="5" fill="#bbdefb" stroke="#1976d2" stroke-width="1.5"/>
  <text x="205" y="260" font-family="Arial, sans-serif" font-size="14" font-weight="bold" text-anchor="middle" fill="#0d47a1">Container</text>
  <text x="205" y="280" font-family="Arial, sans-serif" font-size="12" text-anchor="middle" fill="#0d47a1">Web</text>
  <text x="205" y="300" font-family="Arial, sans-serif" font-size="12" text-anchor="middle" fill="#0d47a1">:8080</text>
  
  <!-- Container 2 in Pod 1 -->
  <rect x="260" y="225" width="90" height="90" rx="5" ry="5" fill="#bbdefb" stroke="#1976d2" stroke-width="1.5"/>
  <text x="305" y="260" font-family="Arial, sans-serif" font-size="14" font-weight="bold" text-anchor="middle" fill="#0d47a1">Container</text>
  <text x="305" y="280" font-family="Arial, sans-serif" font-size="12" text-anchor="middle" fill="#0d47a1">Cache</text>
  <text x="305" y="300" font-family="Arial, sans-serif" font-size="12" text-anchor="middle" fill="#0d47a1">:9000</text>
  
  <!-- Localhost communication -->
  <path d="M 250,270 L 260,270" stroke="#1976d2" stroke-width="2" stroke-dasharray="4,2"/>
  <text x="255" y="260" font-family="Arial, sans-serif" font-size="10" text-anchor="middle" fill="#1976d2">localhost</text>
  
  <!-- Pod 2 -->
  <rect x="150" y="340" width="210" height="120" rx="10" ry="10" fill="#e8f5e9" stroke="#388e3c" stroke-width="2"/>
  <text x="175" y="365" font-family="Arial, sans-serif" font-size="16" font-weight="bold" fill="#1b5e20">Pod B</text>
  <text x="260" y="365" font-family="Arial, sans-serif" font-size="12" fill="#388e3c">10.244.1.3</text>
  
  <!-- Container in Pod 2 -->
  <rect x="210" y="375" width="90" height="70" rx="5" ry="5" fill="#c8e6c9" stroke="#388e3c" stroke-width="1.5"/>
  <text x="255" y="405" font-family="Arial, sans-serif" font-size="14" font-weight="bold" text-anchor="middle" fill="#1b5e20">Container</text>
  <text x="255" y="425" font-family="Arial, sans-serif" font-size="12" text-anchor="middle" fill="#1b5e20">DB</text>
  
  <!-- Node 2 -->
  <rect x="420" y="150" width="250" height="330" rx="10" ry="10" fill="#ffffff" stroke="#78909c" stroke-width="2"/>
  <text x="465" y="175" font-family="Arial, sans-serif" font-size="16" font-weight="bold" fill="#37474f">Node 2</text>
  <text x="545" y="175" font-family="Arial, sans-serif" font-size="12" fill="#546e7a">10.0.1.2</text>
  
  <!-- Pod 3 -->
  <rect x="440" y="190" width="210" height="120" rx="10" ry="10" fill="#f3e5f5" stroke="#7b1fa2" stroke-width="2"/>
  <text x="465" y="215" font-family="Arial, sans-serif" font-size="16" font-weight="bold" fill="#4a148c">Pod C</text>
  <text x="550" y="215" font-family="Arial, sans-serif" font-size="12" fill="#7b1fa2">10.244.2.2</text>
  
  <!-- Container in Pod 3 -->
  <rect x="500" y="225" width="90" height="70" rx="5" ry="5" fill="#e1bee7" stroke="#7b1fa2" stroke-width="1.5"/>
  <text x="545" y="255" font-family="Arial, sans-serif" font-size="14" font-weight="bold" text-anchor="middle" fill="#4a148c">Container</text>
  <text x="545" y="275" font-family="Arial, sans-serif" font-size="12" text-anchor="middle" fill="#4a148c">API</text>
  
  <!-- Pod 4 (Service) -->
  <rect x="440" y="320" width="210" height="150" rx="10" ry="10" fill="#fff3e0" stroke="#f57c00" stroke-width="2"/>
  <text x="465" y="345" font-family="Arial, sans-serif" font-size="16" font-weight="bold" fill="#e65100">Service</text>
  <text x="550" y="345" font-family="Arial, sans-serif" font-size="12" fill="#f57c00">10.96.0.1</text>
  
  <!-- Service details -->
  <rect x="460" y="355" width="170" height="80" rx="5" ry="5" fill="#ffe0b2" stroke="#f57c00" stroke-width="1.5"/>
  <text x="545" y="375" font-family="Arial, sans-serif" font-size="14" font-weight="bold" text-anchor="middle" fill="#e65100">ClusterIP</text>
  <text x="545" y="395" font-family="Arial, sans-serif" font-size="12" text-anchor="middle" fill="#e65100">Selects: app=web</text>
  <text x="545" y="415" font-family="Arial, sans-serif" font-size="12" text-anchor="middle" fill="#e65100">Port: 80→8080</text>
  
  <!-- External client -->
  <rect x="350" y="530" width="140" height="50" rx="8" ry="8" fill="#fce4ec" stroke="#d81b60" stroke-width="2"/>
  <text x="420" y="560" font-family="Arial, sans-serif" font-size="14" font-weight="bold" text-anchor="middle" fill="#880e4f">External Client</text>
  
  <!-- Networking arrows -->
  
  <!-- Pod to Pod communication (same node) -->
  <path d="M 255,330 L 255,340" stroke="#1976d2" stroke-width="2" marker-end="url(#arrowhead)" fill="none"/>
  <text x="270" y="335" font-family="Arial, sans-serif" font-size="10" fill="#1976d2">Direct Pod IP</text>
  
  <!-- Pod to Pod communication (different nodes) -->
  <path d="M 360,250 L 440,250" stroke="#7b1fa2" stroke-width="2" marker-end="url(#arrowhead)" fill="none"/>
  <text x="400" y="240" font-family="Arial, sans-serif" font-size="10" fill="#7b1fa2">Pod to Pod across nodes</text>
  
  <!-- Pod to Service communication -->
  <path d="M 255,460 L 255,480 L 440,480 L 440,395" stroke="#f57c00" stroke-width="2" marker-end="url(#arrowhead)" stroke-dasharray="5,3" fill="none"/>
  <text x="350" y="470" font-family="Arial, sans-serif" font-size="10" fill="#f57c00">Via Service Virtual IP</text>
  
  <!-- Service to Pod communication -->
  <path d="M 545,355 C 600,330 600,300 600,260 C 600,180 300,160 255,190" stroke="#f57c00" stroke-width="2" marker-end="url(#arrowhead)" stroke-dasharray="5,3" fill="none"/>
  <text x="500" y="300" font-family="Arial, sans-serif" font-size="10" fill="#f57c00">Load balancing</text>
  
  <!-- External communication -->
  <path d="M 420,530 L 420,450 L 440,395" stroke="#d81b60" stroke-width="2" marker-end="url(#arrowhead)" stroke-dasharray="8,4" fill="none"/>
  <text x="430" y="480" font-family="Arial, sans-serif" font-size="10" fill="#d81b60">External access via Service</text>
  
  <!-- Legend -->
  <rect x="100" y="530" width="220" height="60" rx="5" ry="5" fill="#ffffff" stroke="#9e9e9e" stroke-width="1"/>
  <text x="110" y="550" font-family="Arial, sans-serif" font-size="12" font-weight="bold" fill="#424242">Key Features:</text>
  <text x="110" y="570" font-family="Arial, sans-serif" font-size="10" fill="#424242">• Each Pod has a unique IP address</text>
  <text x="110" y="585" font-family="Arial, sans-serif" font-size="10" fill="#424242">• Containers in a Pod share network namespace</text>
  
  <!-- Arrow definitions -->
  <defs>
    <marker id="arrowhead" markerWidth="10" markerHeight="7" refX="9" refY="3.5" orient="auto">
      <polygon points="0 0, 10 3.5, 0 7" fill="#546e7a"/>
    </marker>
  </defs>
  
  <!-- Kubernetes logo -->
  <g transform="translate(720, 50) scale(0.2)">
    <path d="M 82.4,50.5 C 82.4,67.4 68.8,81.2 51.9,81.2 C 35,81.2 21.4,67.4 21.4,50.5 C 21.4,33.6 35,19.8 51.9,19.8 C 68.8,19.8 82.4,33.6 82.4,50.5 Z" fill="#326ce5"/>
    <path d="M 51.9,16 C 33.1,16 17.7,31.4 17.7,50.5 C 17.7,69.6 33.1,85 51.9,85 C 70.7,85 86.1,69.6 86.1,50.5 C 86.1,31.4 70.7,16 51.9,16 Z M 51.9,21.6 C 67.5,21.6 80.5,34.6 80.5,50.5 C 80.5,66.4 67.5,79.4 51.9,79.4 C 36.3,79.4 23.3,66.4 23.3,50.5 C 23.3,34.6 36.3,21.6 51.9,21.6 Z" fill="#ffffff"/>
    <path d="M 65.5,39 L 38.3,39 L 51.9,64.2 Z" fill="#ffffff" stroke="#ffffff" stroke-width="5" stroke-linejoin="round"/>
    <path d="M 65.5,39 L 51.9,22.8 L 38.3,39 Z" fill="#ffffff" stroke="#ffffff" stroke-width="5" stroke-linejoin="round"/>
  </g>
</svg>