<svg viewBox="0 0 800 600" xmlns="http://www.w3.org/2000/svg">
  <!-- Background -->
  <rect width="800" height="600" fill="#f8f9fa" rx="10" ry="10"/>
  
  <!-- Title -->
  <text x="400" y="50" font-family="Arial, sans-serif" font-size="24" font-weight="bold" text-anchor="middle" fill="#326ce5">Pod Security Context</text>
  
  <!-- Pod outline with security -->
  <rect x="150" y="100" width="500" height="400" rx="20" ry="20" fill="#ffffff" stroke="#f44336" stroke-width="3" stroke-dasharray="3,3"/>
  
  <!-- Security shield icon -->
  <g transform="translate(400, 130) scale(2)">
    <path d="M 0,-25 L -15,-15 L -15,5 C -15,15 0,20 0,20 C 0,20 15,15 15,5 L 15,-15 Z" stroke="#f44336" stroke-width="1.5" fill="#ffebee"/>
    <path d="M -5,0 L -2,10 L 10,-5" stroke="#f44336" stroke-width="2" fill="none"/>
  </g>
  
  <!-- Pod-level Security Context -->
  <rect x="170" y="180" width="460" height="120" rx="10" ry="10" fill="#ffebee" stroke="#f44336" stroke-width="2"/>
  <text x="250" y="205" font-family="Arial, sans-serif" font-size="18" font-weight="bold" fill="#d32f2f">Pod-level Security Context</text>
  
  <!-- Pod-level Security settings -->
  <rect x="190" y="220" width="200" height="30" rx="5" ry="5" fill="#ffffff" stroke="#f44336" stroke-width="1"/>
  <text x="290" y="240" font-family="Arial, sans-serif" font-size="12" text-anchor="middle" fill="#d32f2f">runAsUser: 1000</text>
  
  <rect x="190" y="260" width="200" height="30" rx="5" ry="5" fill="#ffffff" stroke="#f44336" stroke-width="1"/>
  <text x="290" y="280" font-family="Arial, sans-serif" font-size="12" text-anchor="middle" fill="#d32f2f">runAsGroup: 3000</text>
  
  <rect x="410" y="220" width="200" height="30" rx="5" ry="5" fill="#ffffff" stroke="#f44336" stroke-width="1"/>
  <text x="510" y="240" font-family="Arial, sans-serif" font-size="12" text-anchor="middle" fill="#d32f2f">fsGroup: 2000</text>
  
  <rect x="410" y="260" width="200" height="30" rx="5" ry="5" fill="#ffffff" stroke="#f44336" stroke-width="1"/>
  <text x="510" y="280" font-family="Arial, sans-serif" font-size="12" text-anchor="middle" fill="#d32f2f">supplementalGroups: [5000]</text>
  
  <!-- Container 1 with Security Context -->
  <rect x="190" y="320" width="200" height="160" rx="10" ry="10" fill="#e3f2fd" stroke="#1976d2" stroke-width="2"/>
  <text x="290" y="345" font-family="Arial, sans-serif" font-size="16" font-weight="bold" text-anchor="middle" fill="#0d47a1">Container 1</text>
  
  <!-- Container 1 Security Context -->
  <rect x="200" y="360" width="180" height="110" rx="5" ry="5" fill="#e1f5fe" stroke="#03a9f4" stroke-width="1"/>
  <text x="290" y="380" font-family="Arial, sans-serif" font-size="14" font-weight="bold" text-anchor="middle" fill="#01579b">SecurityContext</text>
  
  <text x="290" y="400" font-family="Arial, sans-serif" font-size="12" text-anchor="middle" fill="#0288d1">runAsUser: 2000</text>
  <text x="290" y="420" font-family="Arial, sans-serif" font-size="12" text-anchor="middle" fill="#0288d1">allowPrivilegeEscalation: false</text>
  <text x="290" y="440" font-family="Arial, sans-serif" font-size="12" text-anchor="middle" fill="#0288d1">readOnlyRootFilesystem: true</text>
  <text x="290" y="460" font-family="Arial, sans-serif" font-size="12" text-anchor="middle" fill="#0288d1">capabilities.drop: ["ALL"]</text>
  
  <!-- Container 2 with Security Context -->
  <rect x="410" y="320" width="200" height="160" rx="10" ry="10" fill="#e8f5e9" stroke="#388e3c" stroke-width="2"/>
  <text x="510" y="345" font-family="Arial, sans-serif" font-size="16" font-weight="bold" text-anchor="middle" fill="#1b5e20">Container 2</text>
  
  <!-- Container 2 Inherits Pod Security Context -->
  <rect x="420" y="360" width="180" height="110" rx="5" ry="5" fill="#e8f5e9" stroke="#66bb6a" stroke-width="1" stroke-dasharray="5,3"/>
  <text x="510" y="380" font-family="Arial, sans-serif" font-size="14" font-weight="bold" text-anchor="middle" fill="#1b5e20">Inherits Pod Context</text>
  
  <text x="510" y="400" font-family="Arial, sans-serif" font-size="12" text-anchor="middle" fill="#2e7d32">runAsUser: 1000 (from Pod)</text>
  <text x="510" y="420" font-family="Arial, sans-serif" font-size="12" text-anchor="middle" fill="#2e7d32">runAsGroup: 3000 (from Pod)</text>
  <text x="510" y="440" font-family="Arial, sans-serif" font-size="12" text-anchor="middle" fill="#2e7d32">fsGroup: 2000 (from Pod)</text>
  <text x="510" y="460" font-family="Arial, sans-serif" font-size="12" text-anchor="middle" fill="#2e7d32">Default capabilities</text>
  
  <!-- Security Best Practices -->
  <rect x="150" y="520" width="500" height="60" rx="5" ry="5" fill="#f5f5f5" stroke="#9e9e9e" stroke-width="1"/>
  <text x="180" y="545" font-family="Arial, sans-serif" font-size="14" font-weight="bold" fill="#424242">Security Best Practices:</text>
  <text x="180" y="565" font-family="Arial, sans-serif" font-size="12" fill="#424242">• Run containers as non-root users</text>
  <text x="390" y="565" font-family="Arial, sans-serif" font-size="12" fill="#424242">• Use read-only filesystems when possible</text>
  
  <!-- Kubernetes logo -->
  <g transform="translate(720, 50) scale(0.2)">
    <path d="M 82.4,50.5 C 82.4,67.4 68.8,81.2 51.9,81.2 C 35,81.2 21.4,67.4 21.4,50.5 C 21.4,33.6 35,19.8 51.9,19.8 C 68.8,19.8 82.4,33.6 82.4,50.5 Z" fill="#326ce5"/>
    <path d="M 51.9,16 C 33.1,16 17.7,31.4 17.7,50.5 C 17.7,69.6 33.1,85 51.9,85 C 70.7,85 86.1,69.6 86.1,50.5 C 86.1,31.4 70.7,16 51.9,16 Z M 51.9,21.6 C 67.5,21.6 80.5,34.6 80.5,50.5 C 80.5,66.4 67.5,79.4 51.9,79.4 C 36.3,79.4 23.3,66.4 23.3,50.5 C 23.3,34.6 36.3,21.6 51.9,21.6 Z" fill="#ffffff"/>
    <path d="M 65.5,39 L 38.3,39 L 51.9,64.2 Z" fill="#ffffff" stroke="#ffffff" stroke-width="5" stroke-linejoin="round"/>
    <path d="M 65.5,39 L 51.9,22.8 L 38.3,39 Z" fill="#ffffff" stroke="#ffffff" stroke-width="5" stroke-linejoin="round"/>
  </g>
</svg>