<?xml version="1.0" encoding="UTF-8" standalone="no"?>
<svg xmlns="http://www.w3.org/2000/svg" xmlns:xlink="http://www.w3.org/1999/xlink" width="800" height="480" viewBox="0 0 800 480">
  <style>
    .node rect { fill: #fff; stroke: #333; stroke-width: 1.5px; }
    .node.primary rect { fill: #4e73df; stroke: #333; stroke-width: 2px; }
    .node.startup rect { fill: #1cc88a; stroke: #333; stroke-width: 1px; }
    .node.liveness rect { fill: #f6c23e; stroke: #333; stroke-width: 1px; }
    .node.readiness rect { fill: #36b9cc; stroke: #333; stroke-width: 1px; }
    .node text { font-family: Arial; font-size: 14px; fill: #333; }
    .node.primary text { fill: white; font-weight: bold; }
    .edgePath path { stroke: #333; stroke-width: 1.5px; fill: none; }
  </style>
  <g transform="translate(20,20)">
    <!-- Container Health Probe Types -->
    <g class="node primary" transform="translate(380, 50)">
      <rect width="200" height="40" rx="5" ry="5"></rect>
      <text x="100" y="25" text-anchor="middle">Kubernetes Container Probes</text>
    </g>
    
    <!-- Probe Types -->
    <g class="node startup" transform="translate(150, 130)">
      <rect width="160" height="40" rx="5" ry="5"></rect>
      <text x="80" y="25" text-anchor="middle">Startup Probe</text>
    </g>
    
    <g class="node liveness" transform="translate(380, 130)">
      <rect width="160" height="40" rx="5" ry="5"></rect>
      <text x="80" y="25" text-anchor="middle">Liveness Probe</text>
    </g>
    
    <g class="node readiness" transform="translate(610, 130)">
      <rect width="160" height="40" rx="5" ry="5"></rect>
      <text x="80" y="25" text-anchor="middle">Readiness Probe</text>
    </g>
    
    <!-- Purpose Descriptions -->
    <g transform="translate(150, 210)">
      <rect width="160" height="60" rx="5" ry="5" fill="#f8f9fc" stroke="#e3e6f0"></rect>
      <text x="80" y="25" text-anchor="middle" font-size="12px">Checks if application has</text>
      <text x="80" y="45" text-anchor="middle" font-size="12px">successfully initialized</text>
    </g>
    
    <g transform="translate(380, 210)">
      <rect width="160" height="60" rx="5" ry="5" fill="#f8f9fc" stroke="#e3e6f0"></rect>
      <text x="80" y="25" text-anchor="middle" font-size="12px">Checks if container is</text>
      <text x="80" y="45" text-anchor="middle" font-size="12px">running correctly</text>
    </g>
    
    <g transform="translate(610, 210)">
      <rect width="160" height="60" rx="5" ry="5" fill="#f8f9fc" stroke="#e3e6f0"></rect>
      <text x="80" y="25" text-anchor="middle" font-size="12px">Checks if container is</text>
      <text x="80" y="45" text-anchor="middle" font-size="12px">ready to receive traffic</text>
    </g>
    
    <!-- Outcomes -->
    <g transform="translate(70, 310)">
      <rect width="160" height="60" rx="5" ry="5" fill="#f8f9fc" stroke="#e3e6f0"></rect>
      <text x="80" y="25" text-anchor="middle" font-size="12px">Failure: Container restarts</text>
      <text x="80" y="45" text-anchor="middle" font-size="12px">after failureThreshold</text>
    </g>
    
    <g transform="translate(230, 310)">
      <rect width="160" height="60" rx="5" ry="5" fill="#f8f9fc" stroke="#e3e6f0"></rect>
      <text x="80" y="25" text-anchor="middle" font-size="12px">Success: Enables</text>
      <text x="80" y="45" text-anchor="middle" font-size="12px">other probes</text>
    </g>
    
    <g transform="translate(300, 310)">
      <rect width="160" height="60" rx="5" ry="5" fill="#f8f9fc" stroke="#e3e6f0"></rect>
      <text x="80" y="25" text-anchor="middle" font-size="12px">Failure: Container</text>
      <text x="80" y="45" text-anchor="middle" font-size="12px">restarts</text>
    </g>
    
    <g transform="translate(460, 310)">
      <rect width="160" height="60" rx="5" ry="5" fill="#f8f9fc" stroke="#e3e6f0"></rect>
      <text x="80" y="25" text-anchor="middle" font-size="12px">Success: Container</text>
      <text x="80" y="45" text-anchor="middle" font-size="12px">continues running</text>
    </g>
    
    <g transform="translate(530, 310)">
      <rect width="160" height="60" rx="5" ry="5" fill="#f8f9fc" stroke="#e3e6f0"></rect>
      <text x="80" y="25" text-anchor="middle" font-size="12px">Failure: Container removed</text>
      <text x="80" y="45" text-anchor="middle" font-size="12px">from service endpoints</text>
    </g>
    
    <g transform="translate(690, 310)">
      <rect width="160" height="60" rx="5" ry="5" fill="#f8f9fc" stroke="#e3e6f0"></rect>
      <text x="80" y="25" text-anchor="middle" font-size="12px">Success: Container</text>
      <text x="80" y="45" text-anchor="middle" font-size="12px">receives traffic</text>
    </g>
    
    <!-- Connecting lines -->
    <!-- Main to types -->
    <path d="M 380,70 L 230,130" class="edgePath" marker-end="url(#arrowhead)"></path>
    <path d="M 480,90 L 480,130" class="edgePath" marker-end="url(#arrowhead)"></path>
    <path d="M 580,70 L 690,130" class="edgePath" marker-end="url(#arrowhead)"></path>
    
    <!-- Types to descriptions -->
    <path d="M 230,170 L 230,210" class="edgePath" marker-end="url(#arrowhead)"></path>
    <path d="M 460,170 L 460,210" class="edgePath" marker-end="url(#arrowhead)"></path>
    <path d="M 690,170 L 690,210" class="edgePath" marker-end="url(#arrowhead)"></path>
    
    <!-- Descriptions to outcomes -->
    <path d="M 190,270 L 150,310" class="edgePath" marker-end="url(#arrowhead)"></path>
    <path d="M 270,270 L 310,310" class="edgePath" marker-end="url(#arrowhead)"></path>
    
    <path d="M 420,270 L 380,310" class="edgePath" marker-end="url(#arrowhead)"></path>
    <path d="M 500,270 L 540,310" class="edgePath" marker-end="url(#arrowhead)"></path>
    
    <path d="M 650,270 L 610,310" class="edgePath" marker-end="url(#arrowhead)"></path>
    <path d="M 730,270 L 770,310" class="edgePath" marker-end="url(#arrowhead)"></path>
    
    <!-- Arrowhead marker definition -->
    <defs>
      <marker id="arrowhead" viewBox="0 0 10 10" refX="9" refY="5"
        markerWidth="6" markerHeight="6" orient="auto">
        <path d="M 0,0 L 10,5 L 0,10 z" fill="#333"></path>
      </marker>
    </defs>
  </g>
</svg>