<?xml version="1.0" encoding="UTF-8" standalone="no"?>
<svg xmlns="http://www.w3.org/2000/svg" width="800" height="400" viewBox="0 0 800 400">
  <defs>
    <linearGradient id="bg-gradient" x1="0%" y1="0%" x2="100%" y2="100%">
      <stop offset="0%" style="stop-color:#326CE5;stop-opacity:0.05" />
      <stop offset="100%" style="stop-color:#326CE5;stop-opacity:0.1" />
    </linearGradient>
    <linearGradient id="secure-gradient" x1="0%" y1="0%" x2="100%" y2="100%">
      <stop offset="0%" style="stop-color:#6BCB77;stop-opacity:0.1" />
      <stop offset="100%" style="stop-color:#6BCB77;stop-opacity:0.2" />
    </linearGradient>
  </defs>

  <!-- Background -->
  <rect width="800" height="400" fill="#FFFFFF" />
  
  <!-- Secret Title -->
  <text x="400" y="40" font-family="Arial, sans-serif" font-size="24" font-weight="bold" text-anchor="middle" fill="#326CE5">
    Secret Overview
  </text>

  <!-- Secret Center Box -->
  <g transform="translate(400, 200)">
    <rect x="-100" y="-60" width="200" height="120" rx="10" fill="url(#bg-gradient)" stroke="#326CE5" stroke-width="2" />
    
    <!-- Lock Symbol -->
    <circle cx="0" cy="-35" r="15" fill="#FFFFFF" stroke="#326CE5" stroke-width="1.5" />
    <rect x="-7.5" y="-33" width="15" height="12" rx="2" fill="#FFFFFF" stroke="#326CE5" stroke-width="1.5" />
    <circle cx="0" cy="-33" r="2.5" fill="#326CE5" />
    <rect x="-1" y="-30" width="2" height="6" fill="#326CE5" />
    
    <text x="0" y="-10" font-family="Arial, sans-serif" font-size="18" font-weight="bold" text-anchor="middle" fill="#326CE5">Secret</text>
    <text x="0" y="15" font-family="Arial, sans-serif" font-size="14" text-anchor="middle" fill="#333">Sensitive</text>
    <text x="0" y="35" font-family="Arial, sans-serif" font-size="14" text-anchor="middle" fill="#333">Configuration Data</text>
  </g>

  <!-- Left Side - Creation Methods -->
  <g transform="translate(150, 200)">
    <rect x="-100" y="-120" width="200" height="240" rx="10" fill="#f8f9fa" stroke="#ddd" stroke-width="2" />
    <text x="0" y="-95" font-family="Arial, sans-serif" font-size="16" font-weight="bold" text-anchor="middle" fill="#333">Creation Methods</text>
    
    <!-- Individual Creation Method Items -->
    <g transform="translate(0, -60)">
      <rect x="-80" y="-15" width="160" height="30" rx="5" fill="#FFFFFF" stroke="#326CE5" stroke-width="1.5" />
      <text x="0" y="5" font-family="Arial, sans-serif" font-size="12" text-anchor="middle" fill="#333">kubectl create secret</text>
    </g>
    
    <g transform="translate(0, -15)">
      <rect x="-80" y="-15" width="160" height="30" rx="5" fill="#FFFFFF" stroke="#326CE5" stroke-width="1.5" />
      <text x="0" y="5" font-family="Arial, sans-serif" font-size="12" text-anchor="middle" fill="#333">From Files</text>
    </g>
    
    <g transform="translate(0, 30)">
      <rect x="-80" y="-15" width="160" height="30" rx="5" fill="#FFFFFF" stroke="#326CE5" stroke-width="1.5" />
      <text x="0" y="5" font-family="Arial, sans-serif" font-size="12" text-anchor="middle" fill="#333">From Literals</text>
    </g>
    
    <g transform="translate(0, 75)">
      <rect x="-80" y="-15" width="160" height="30" rx="5" fill="#FFFFFF" stroke="#326CE5" stroke-width="1.5" />
      <text x="0" y="5" font-family="Arial, sans-serif" font-size="12" text-anchor="middle" fill="#333">YAML with data/stringData</text>
    </g>
  </g>

  <!-- Right Side - Secret Types -->
  <g transform="translate(650, 200)">
    <rect x="-100" y="-120" width="200" height="240" rx="10" fill="#f8f9fa" stroke="#ddd" stroke-width="2" />
    <text x="0" y="-95" font-family="Arial, sans-serif" font-size="16" font-weight="bold" text-anchor="middle" fill="#333">Secret Types</text>
    
    <!-- Individual Secret Type Items -->
    <g transform="translate(0, -60)">
      <rect x="-80" y="-15" width="160" height="30" rx="5" fill="#FFFFFF" stroke="#326CE5" stroke-width="1.5" />
      <text x="0" y="5" font-family="Arial, sans-serif" font-size="12" text-anchor="middle" fill="#333">Opaque (default)</text>
    </g>
    
    <g transform="translate(0, -15)">
      <rect x="-80" y="-15" width="160" height="30" rx="5" fill="#FFFFFF" stroke="#326CE5" stroke-width="1.5" />
      <text x="0" y="5" font-family="Arial, sans-serif" font-size="12" text-anchor="middle" fill="#333">kubernetes.io/tls</text>
    </g>
    
    <g transform="translate(0, 30)">
      <rect x="-80" y="-15" width="160" height="30" rx="5" fill="#FFFFFF" stroke="#326CE5" stroke-width="1.5" />
      <text x="0" y="5" font-family="Arial, sans-serif" font-size="12" text-anchor="middle" fill="#333">kubernetes.io/basic-auth</text>
    </g>
    
    <g transform="translate(0, 75)">
      <rect x="-80" y="-15" width="160" height="30" rx="5" fill="#FFFFFF" stroke="#326CE5" stroke-width="1.5" />
      <text x="0" y="5" font-family="Arial, sans-serif" font-size="12" text-anchor="middle" fill="#333">kubernetes.io/dockerconfigjson</text>
    </g>
  </g>

  <!-- Arrows from Creation Methods to Secret -->
  <g>
    <path d="M 250 200 L 290 200" fill="none" stroke="#326CE5" stroke-width="2" />
    <polygon points="290,200 280,195 280,205" fill="#326CE5" />
  </g>

  <!-- Arrows from Secret to Secret Types -->
  <g>
    <path d="M 510 200 L 550 200" fill="none" stroke="#326CE5" stroke-width="2" />
    <polygon points="550,200 540,195 540,205" fill="#326CE5" />
  </g>

  <!-- Bottom Security Features Box -->
  <g transform="translate(400, 360)">
    <rect x="-350" y="-25" width="700" height="50" rx="5" fill="url(#secure-gradient)" stroke="#6BCB77" stroke-width="1.5" />
    <text x="0" y="5" font-family="Arial, sans-serif" font-size="14" font-weight="bold" text-anchor="middle" fill="#006400">
      Security Features: In-Memory Storage • Limited Distribution • Restrictive RBAC • Optional Immutability
    </text>
  </g>
</svg>
