<?xml version="1.0" encoding="UTF-8" standalone="no"?>
<svg xmlns="http://www.w3.org/2000/svg" width="800" height="500" viewBox="0 0 800 500">
  <defs>
    <linearGradient id="pod-gradient" x1="0%" y1="0%" x2="100%" y2="100%">
      <stop offset="0%" style="stop-color:#326CE5;stop-opacity:0.2" />
      <stop offset="100%" style="stop-color:#326CE5;stop-opacity:0.1" />
    </linearGradient>
    
    <linearGradient id="secret-gradient" x1="0%" y1="0%" x2="100%" y2="100%">
      <stop offset="0%" style="stop-color:#6BCB77;stop-opacity:0.15" />
      <stop offset="100%" style="stop-color:#6BCB77;stop-opacity:0.05" />
    </linearGradient>
  </defs>

  <!-- Title -->
  <text x="400" y="40" font-family="Arial, sans-serif" font-size="24" font-weight="bold" text-anchor="middle" fill="#326CE5">
    Secret Usage in Pods
  </text>

  <!-- Secret Box -->
  <g transform="translate(400, 150)">
    <rect x="-150" y="-70" width="300" height="140" rx="10" fill="url(#secret-gradient)" stroke="#6BCB77" stroke-width="2" />
    
    <!-- Lock Symbol -->
    <circle cx="0" cy="-45" r="12" fill="#FFFFFF" stroke="#6BCB77" stroke-width="1.5" />
    <rect x="-6" y="-43" width="12" height="10" rx="2" fill="#FFFFFF" stroke="#6BCB77" stroke-width="1.5" />
    <circle cx="0" cy="-43" r="2" fill="#6BCB77" />
    <rect x="-1" y="-41" width="2" height="5" fill="#6BCB77" />
    
    <text x="0" y="-20" font-family="Arial, sans-serif" font-size="18" font-weight="bold" text-anchor="middle" fill="#006400">Secret</text>
    
    <!-- Secret Data -->
    <g transform="translate(-110, 10)">
      <text x="0" y="-10" font-family="Arial, sans-serif" font-size="14" text-anchor="start" fill="#333">data:</text>
      <text x="20" y="15" font-family="monospace" font-size="12" text-anchor="start" fill="#333">username: YWRtaW4=</text>
      <text x="20" y="35" font-family="monospace" font-size="12" text-anchor="start" fill="#333">password: czNjcjN0</text>
    </g>
    
    <g transform="translate(30, 10)">
      <text x="0" y="-10" font-family="Arial, sans-serif" font-size="14" text-anchor="start" fill="#333">tls.key:</text>
      <text x="20" y="15" font-family="monospace" font-size="12" text-anchor="start" fill="#333">LS0tLS1CRUdJTi4uLg==</text>
      <text x="20" y="35" font-family="monospace" font-size="12" text-anchor="start" fill="#333">(Base64 encoded)</text>
    </g>
  </g>

  <!-- Pod Box -->
  <g transform="translate(400, 350)">
    <rect x="-200" y="-90" width="400" height="180" rx="10" fill="url(#pod-gradient)" stroke="#326CE5" stroke-width="2" />
    <text x="0" y="-60" font-family="Arial, sans-serif" font-size="18" font-weight="bold" text-anchor="middle" fill="#326CE5">Pod</text>
    
    <!-- Container -->
    <rect x="-180" y="-40" width="360" height="110" rx="5" fill="#FFFFFF" stroke="#326CE5" stroke-width="1.5" />
    <text x="-160" y="-15" font-family="Arial, sans-serif" font-size="14" font-weight="bold" fill="#326CE5">Container</text>
    
    <!-- Environment Variables -->
    <g transform="translate(-120, 20)">
      <rect x="-40" y="-25" width="120" height="50" rx="5" fill="#f8f9fa" stroke="#6BCB77" stroke-width="1.5" />
      <text x="20" y="-5" font-family="Arial, sans-serif" font-size="12" font-weight="bold" text-anchor="middle" fill="#333">Env Variables</text>
      <text x="20" y="15" font-family="monospace" font-size="10" text-anchor="middle" fill="#333">USERNAME=admin</text>
      <text x="20" y="30" font-family="monospace" font-size="10" text-anchor="middle" fill="#333">PASSWORD=s3cr3t</text>
    </g>
    
    <!-- Volume Mount -->
    <g transform="translate(120, 20)">
      <rect x="-60" y="-25" width="120" height="50" rx="5" fill="#f8f9fa" stroke="#6BCB77" stroke-width="1.5" />
      <text x="0" y="-5" font-family="Arial, sans-serif" font-size="12" font-weight="bold" text-anchor="middle" fill="#333">Volume Mount</text>
      <text x="0" y="15" font-family="monospace" font-size="10" text-anchor="middle" fill="#333">/etc/tls/tls.key</text>
      <text x="0" y="30" font-family="monospace" font-size="10" text-anchor="middle" fill="#333">(Decoded Value)</text>
    </g>
  </g>

  <!-- Arrows from Secret to Pod -->
  <g>
    <!-- Environment Variable Path -->
    <path d="M 320 190 C 250 230, 250 300, 280 320" fill="none" stroke="#6BCB77" stroke-width="2" stroke-dasharray="6,3" />
    <text x="240" y="260" font-family="Arial, sans-serif" font-size="12" fill="#006400" text-anchor="middle" transform="rotate(-40, 240, 260)">env</text>
    <polygon points="280,320 270,310 285,305" fill="#6BCB77" />
    
    <!-- Volume Mount Path -->
    <path d="M 480 190 C 550 230, 550 300, 520 320" fill="none" stroke="#6BCB77" stroke-width="2" stroke-dasharray="6,3" />
    <text x="560" y="260" font-family="Arial, sans-serif" font-size="12" fill="#006400" text-anchor="middle" transform="rotate(40, 560, 260)">volume</text>
    <polygon points="520,320 515,305 530,310" fill="#6BCB77" />
  </g>

  <!-- Registry Credentials -->
  <g transform="translate(650, 300)">
    <rect x="-90" y="-30" width="180" height="60" rx="5" fill="#FFFAED" stroke="#FFD166" stroke-width="1.5" />
    <text x="0" y="-5" font-family="Arial, sans-serif" font-size="14" font-weight="bold" text-anchor="middle" fill="#333">imagePullSecrets</text>
    <text x="0" y="20" font-family="monospace" font-size="12" text-anchor="middle" fill="#333">registry-credentials</text>
    
    <!-- Arrow to Pod -->
    <path d="M -90 0 L -30 0" fill="none" stroke="#FFD166" stroke-width="2" />
    <polygon points="-30,0 -40,-5 -40,5" fill="#FFD166" />
  </g>

  <!-- Security Considerations Box -->
  <g transform="translate(400, 470)">
    <rect x="-350" y="-25" width="700" height="50" rx="5" fill="#EDF7ED" stroke="#6BCB77" stroke-width="1.5" />
    <text x="0" y="5" font-family="Arial, sans-serif" font-size="14" font-weight="bold" text-anchor="middle" fill="#006400">
      Security: In-Memory Storage • File Permissions • RBAC • ReadOnly Mounts • Minimum Exposure
    </text>
  </g>
</svg>
