<svg width="800" height="600" xmlns="http://www.w3.org/2000/svg">
  <defs>
    <style>
      .title { font-family: Arial, sans-serif; font-size: 22px; font-weight: bold; text-anchor: middle; }
      .label { font-family: Arial, sans-serif; font-size: 14px; text-anchor: middle; }
      .small-label { font-family: Arial, sans-serif; font-size: 12px; text-anchor: middle; }
      .component { fill: white; stroke: #333; stroke-width: 2; }
      .etcd { fill: #fff3e0; stroke: #ff8f00; stroke-width: 2; }
      .api-server { fill: #e8f5e8; stroke: #4caf50; stroke-width: 2; }
      .connection { stroke: #333; stroke-width: 2; fill: none; }
      .dashed { stroke-dasharray: 5,5; }
    </style>
    <marker id="arrowhead" markerWidth="10" markerHeight="7" refX="10" refY="3.5" orient="auto">
      <polygon points="0 0, 10 3.5, 0 7" fill="#333"/>
    </marker>
  </defs>
  
  <!-- Title -->
  <text x="400" y="30" class="title">Kubernetes Control Plane Component Interactions</text>
  
  <!-- etcd cluster at top -->
  <ellipse cx="400" cy="80" rx="60" ry="30" class="etcd"/>
  <text x="400" y="75" class="label">etcd</text>
  <text x="400" y="90" class="small-label">cluster</text>
  
  <!-- API Server (central hexagon) -->
  <polygon points="400,150 440,170 440,210 400,230 360,210 360,170" class="api-server"/>
  <text x="400" y="185" class="label">API</text>
  <text x="400" y="200" class="label">Server</text>
  
  <!-- Scheduler -->
  <rect x="200" y="150" width="100" height="80" class="component" rx="10"/>
  <text x="250" y="185" class="label">Scheduler</text>
  
  <!-- Controller Manager -->
  <rect x="500" y="150" width="100" height="80" class="component" rx="10"/>
  <text x="550" y="175" class="label">Controller</text>
  <text x="550" y="190" class="label">Manager</text>
  <text x="535" y="210" class="small-label">├ Deployment</text>
  <text x="535" y="222" class="small-label">│ Controller</text>
  <text x="535" y="235" class="small-label">├ ReplicaSet</text>
  <text x="535" y="247" class="small-label">│ Controller</text>
  <text x="535" y="260" class="small-label">├ Service</text>
  <text x="535" y="272" class="small-label">│ Controller</text>
  
  <!-- Cloud Controller Manager -->
  <rect x="500" y="300" width="120" height="60" class="component" rx="10"/>
  <text x="560" y="325" class="label">Cloud</text>
  <text x="560" y="340" class="label">Controller</text>
  <text x="560" y="355" class="label">Manager</text>
  
  <!-- Node Assignment -->
  <rect x="300" y="300" width="100" height="60" class="component" rx="10"/>
  <text x="350" y="325" class="label">Node</text>
  <text x="350" y="340" class="label">Assignment</text>
  
  <!-- kubelet nodes -->
  <rect x="150" y="420" width="500" height="100" fill="none" stroke="#333" stroke-width="1" stroke-dasharray="5,5" rx="10"/>
  <text x="400" y="440" class="label">Worker Nodes</text>
  
  <!-- Connection lines with labels -->
  
  <!-- etcd to API Server -->
  <line x1="400" y1="110" x2="400" y2="150" class="connection" marker-end="url(#arrowhead)"/>
  <line x1="400" y1="150" x2="400" y2="110" class="connection" marker-end="url(#arrowhead)"/>
  <text x="420" y="125" class="small-label">Read/Write</text>
  <text x="420" y="138" class="small-label">State</text>
  
  <!-- Scheduler to API Server -->
  <line x1="300" y1="190" x2="360" y2="190" class="connection" marker-end="url(#arrowhead)"/>
  <line x1="360" y1="180" x2="300" y2="180" class="connection" marker-end="url(#arrowhead)"/>
  
  <!-- Controller Manager to API Server -->
  <line x1="500" y1="190" x2="440" y2="190" class="connection" marker-end="url(#arrowhead)"/>
  <line x1="440" y1="180" x2="500" y2="180" class="connection" marker-end="url(#arrowhead)"/>
  
  <!-- Scheduler watch pods (dashed line) -->
  <line x1="250" y1="230" x2="380" y2="210" class="connection dashed" marker-end="url(#arrowhead)"/>
  <text x="290" y="240" class="small-label">Watch</text>
  <text x="290" y="252" class="small-label">Pods</text>
  
  <!-- API Server to Node Assignment -->
  <line x1="400" y1="230" x2="350" y2="300" class="connection" marker-end="url(#arrowhead)"/>
  <text x="365" y="265" class="small-label">State</text>
  <text x="365" y="277" class="small-label">Updates</text>
  
  <!-- Controller Manager to Cloud Controller -->
  <line x1="550" y1="230" x2="550" y2="300" class="connection" marker-end="url(#arrowhead)"/>
  
  <!-- Scheduler to Node Assignment (dashed) -->
  <line x1="250" y1="230" x2="300" y2="320" class="connection dashed" marker-end="url(#arrowhead)"/>
  
  <!-- Node Assignment to kubelet -->
  <line x1="350" y1="360" x2="350" y2="420" class="connection" marker-end="url(#arrowhead)"/>
  <line x1="400" y1="360" x2="450" y2="420" class="connection" marker-end="url(#arrowhead)"/>
  <text x="320" y="390" class="small-label">Pod</text>
  <text x="320" y="402" class="small-label">Creation</text>
  <text x="320" y="414" class="small-label">Request</text>
  
  <!-- etcd connections to other components -->
  <line x1="360" y1="90" x2="280" y2="150" class="connection"/>
  <line x1="440" y1="90" x2="520" y2="150" class="connection"/>
  <text x="320" y="115" class="small-label">Read/Write</text>
  <text x="320" y="127" class="small-label">State</text>
  <text x="480" y="115" class="small-label">Read/Write</text>
  <text x="480" y="127" class="small-label">State</text>
</svg>